<!DOCTYPE svg PUBLIC "-//W3C//DTD SVG 1.1//EN" "http://www.w3.org/Graphics/SVG/1.1/DTD/svg11.dtd">
<!-- Uploaded to: SVG Repo, www.svgrepo.com, Transformed by: SVG Repo Mixer Tools -->
<svg height="800px" width="800px" version="1.1" id="Layer_1" xmlns="http://www.w3.org/2000/svg" xmlns:xlink="http://www.w3.org/1999/xlink" viewBox="0 0 507.93 507.93" xml:space="preserve" fill="#000000" transform="matrix(-1, 0, 0, 1, 0, 0)">
<g id="SVGRepo_bgCarrier" stroke-width="0"/>
<g id="SVGRepo_tracerCarrier" stroke-linecap="round" stroke-linejoin="round"/>
<g id="SVGRepo_iconCarrier"> <path style="fill:#015fc9;" d="M495.738,137.4l-44.1-44.1c-13.3-13.3-34.7-13.3-47.9-0.1l-53.8,53.8c-13.2,13.2-13.2,34.7,0,47.9 l31.8,31.8l0,0c-43.1,60-95.8,112.7-155.8,155.8l0,0l-31.8-31.8c-13.2-13.2-34.7-13.2-47.9,0l-53.8,53.8 c-13.2,13.2-13.2,34.7,0,47.9l44.1,44.1c43.4,43.4,157.2-46,225.1-114c6.7-6.7,13.4-13.4,20.1-20.1 C450.038,294.2,539.138,180.8,495.738,137.4z"/> <path style="fill:#0be1ff;" d="M246.738,211c33.4-21.9,54.6-54.9,54.6-91.9c0-65.8-67.3-119.1-150.3-119.1S0.738,53.3,0.738,119.2 s67.3,119.2,150.3,119.2c15.9,0,31.2-2,45.6-5.6c18.9,22.9,58.6,38.3,98.3,27.1C293.938,259.8,245.438,247.7,246.738,211z"/> <g> <circle style="fill:#FFFFFF;" cx="82.638" cy="119.2" r="27.3"/> <circle style="fill:#FFFFFF;" cx="151.038" cy="119.2" r="27.3"/> <circle style="fill:#FFFFFF;" cx="219.338" cy="119.2" r="27.3"/> </g> </g>
</svg>