<!DOCTYPE svg PUBLIC "-//W3C//DTD SVG 1.1//EN" "http://www.w3.org/Graphics/SVG/1.1/DTD/svg11.dtd">
<!-- Uploaded to: SVG Repo, www.svgrepo.com, Transformed by: SVG Repo Mixer Tools -->
<svg height="800px" width="800px" version="1.1" id="Capa_1" xmlns="http://www.w3.org/2000/svg" xmlns:xlink="http://www.w3.org/1999/xlink" viewBox="0 0 265.373 265.373" xml:space="preserve" fill="#000000">
<g id="SVGRepo_bgCarrier" stroke-width="0"/>
<g id="SVGRepo_tracerCarrier" stroke-linecap="round" stroke-linejoin="round"/>
<g id="SVGRepo_iconCarrier"> <g> <g> <g> <path style="fill:#d5be48;" d="M100.047,3.395c-10.487,7.166-5.828,17.239-4.012,20.368c-2.166-1.732-4.087-3.112-5.627-4.155 C84.933,4.63,70.956,7.612,70.956,7.612c0.386,10.444,16.013,11.957,19.02,12.15c1.811,1.409,3.554,2.862,5.21,4.361 c-10.663-4.199-20.999,5.486-20.999,5.486c15.472,5.961,21.411-1.473,22.818-3.785c3.91,3.741,7.389,7.734,10.479,11.889 c-17.255-5.496-24.747,7.328-24.747,7.328c12.813,6.665,23.039-2.594,25.944-5.68c2.784,3.914,5.244,7.955,7.412,12.057 c-9.909-4.353-20.485,5.592-20.485,5.592c12.243,5.824,19.481,0.904,22.341-1.923c2.095,4.327,3.875,8.694,5.398,13.022 c-12.794-7.393-22.645,1.952-22.645,1.952c8.736,9.031,19.822,2.482,23.321,0.012c1.654,4.938,2.97,9.805,4.025,14.474 c-13.649-8.792-21.354-0.308-21.354-0.308c10.065,8.708,18.795,4.131,21.742,2.078c0.994,4.661,1.722,9.106,2.251,13.218 c-8.44-9.027-20.935-3.459-20.935-3.459c7.158,9.367,17.411,7.555,21.293,6.428c0.597,5.334,0.861,9.981,0.97,13.635 c-9.959-12.036-23.184-7.029-23.184-7.029c9.187,12.585,21.242,8.301,23.196,7.495c0.132,5.145-0.055,8.198-0.055,8.198 c0.493-3.008,0.867-5.942,1.151-8.815c16.239-0.038,17.464-13.318,17.464-13.318c-9.79-0.075-15.515,8.702-17.336,12.048 c0.409-4.629,0.565-9.075,0.481-13.343c16.074,0.53,17.163-17.185,17.163-17.185c-11,1.498-15.527,8.831-17.305,13.403 c-0.23-4.401-0.709-8.596-1.394-12.604c11.647-1.616,14.823-18.376,14.823-18.376c-10.557,1.953-14.268,9.568-15.577,14.4 c-0.895-4.23-2.026-8.229-3.333-12.006c13.685-3.318,10.993-19.808,10.993-19.808c-10.351,3.128-13.037,8.992-13.385,13.584 c-1.487-3.51-3.12-6.8-4.861-9.88c13.613-6.518,5.663-18.384,5.663-18.384c-7.099,4.646-8.937,9.341-8.983,12.91 c-2.265-3.463-4.626-6.603-6.996-9.443c15.793-1.722,8.145-19.094,8.145-19.094c-8.949,4.901-10.382,12.404-10.443,16.436 c-3.999-4.471-7.927-8.07-11.321-10.847C109.132,13.871,100.047,3.395,100.047,3.395z"/> <g> <g> <g> <path style="fill:#a87a29;" d="M134.82,114.736l-0.257-0.464c0.083-0.037,8.702-3.863,13.808-10.46l0.479,0.296 C143.651,110.817,134.907,114.699,134.82,114.736z"/> </g> <g> <polygon style="fill:#a87a29;" points="142.966,113.007 137.944,112.895 138.033,109.67 138.619,109.681 138.54,112.39 142.983,112.49 "/> </g> <g> <polygon style="fill:#a87a29;" points="142.829,109.679 142.136,106.327 142.713,106.234 143.304,109.106 146.541,108.76 146.609,109.273 "/> </g> </g> <g> <g> <path style="fill:#a87a29;" d="M135.789,98.735l-0.319-0.436c0.085-0.045,8.164-4.696,12.415-11.755l0.515,0.243 C144.076,93.969,135.866,98.687,135.789,98.735z"/> </g> <g> <polygon style="fill:#a87a29;" points="143.662,96.212 138.661,96.598 138.345,93.383 138.924,93.339 139.189,96.036 143.618,95.699 "/> </g> <g> <polygon style="fill:#a87a29;" points="143.116,92.918 142.007,89.653 142.564,89.505 143.511,92.302 146.687,91.642 146.821,92.146 "/> </g> </g> <g> <g> <path style="fill:#a87a29;" d="M134.125,82.866l-0.394-0.378c0.07-0.059,7.112-5.887,9.908-13.494l0.556,0.159 C141.347,76.893,134.199,82.808,134.125,82.866z"/> </g> <g> <polygon style="fill:#a87a29;" points="141.384,79.164 136.533,80.318 135.593,77.201 136.154,77.067 136.946,79.687 141.235,78.667 "/> </g> <g> <polygon style="fill:#a87a29;" points="140.195,76.006 138.465,72.963 138.983,72.729 140.473,75.34 143.46,74.199 143.692,74.674 "/> </g> </g> <g> <g> <path style="fill:#a87a29;" d="M127.665,66.634l-0.392-0.38c0.067-0.058,7.108-5.887,9.91-13.493l0.552,0.162 C134.889,60.658,127.739,66.573,127.665,66.634z"/> </g> <g> <polygon style="fill:#a87a29;" points="134.928,62.932 130.073,64.084 129.134,60.965 129.696,60.835 130.489,63.451 134.779,62.432 "/> </g> <g> <polygon style="fill:#a87a29;" points="133.735,59.774 132.005,56.731 132.524,56.497 134.01,59.108 137.002,57.964 137.236,58.441 "/> </g> </g> <g> <g> <path style="fill:#a87a29;" d="M119.934,50.83l-0.429-0.27c0.049-0.063,5.04-6.377,5.901-13.556l0.522,0.047 C125.049,44.356,119.985,50.764,119.934,50.83z"/> </g> <g> <polygon style="fill:#a87a29;" points="125.565,46.358 121.518,48.179 120.031,45.586 120.5,45.375 121.751,47.555 125.325,45.94 "/> </g> <g> <polygon style="fill:#a87a29;" points="123.847,43.767 121.675,41.368 122.084,41.074 123.944,43.131 126.346,41.628 126.651,42.008 "/> </g> </g> <g> <g> <path style="fill:#a87a29;" d="M111.282,36.229l-0.429-0.269c0.052-0.064,5.04-6.376,5.903-13.56l0.522,0.051 C116.402,29.754,111.332,36.163,111.282,36.229z"/> </g> <g> <polygon style="fill:#a87a29;" points="116.916,31.756 112.87,33.579 111.381,30.981 111.85,30.771 113.101,32.952 116.676,31.34 "/> </g> <g> <polygon style="fill:#a87a29;" points="115.195,29.164 113.024,26.765 113.434,26.474 115.296,28.532 117.698,27.025 118.001,27.407 "/> </g> </g> <g> <g> <path style="fill:#a87a29;" d="M97.575,20.489l-0.455-0.17c0.03-0.069,3.163-6.785,2.294-13.549l0.496-0.051 C100.786,13.602,97.613,20.417,97.575,20.489z"/> </g> <g> <polygon style="fill:#a87a29;" points="101.724,15.347 98.424,17.76 96.456,15.644 96.837,15.364 98.493,17.144 101.408,15.009 "/> </g> <g> <polygon style="fill:#a87a29;" points="99.538,13.277 96.989,11.462 97.299,11.121 99.487,12.675 101.347,10.852 101.717,11.148 "/> </g> </g> <g> <g> <path style="fill:#a87a29;" d="M93.837,25.978l-0.25-0.38c-0.072,0.033-7.171,3.663-14.85,3.787l0.009,0.442 C86.556,29.697,93.766,26.012,93.837,25.978z"/> </g> <g> <polygon style="fill:#a87a29;" points="88.634,30.292 90.898,27.076 88.274,25.622 88.011,25.997 90.215,27.215 88.209,30.06 "/> </g> <g> <polygon style="fill:#a87a29;" points="86.032,28.644 83.667,26.641 83.325,26.957 85.35,28.678 83.558,30.55 83.936,30.839 "/> </g> </g> <g> <g> <path style="fill:#a87a29;" d="M86.925,17.543l0.189-0.401c-0.069-0.03-7.604-2.894-12.317-8.268l-0.393,0.271 C79.2,14.609,86.85,17.52,86.925,17.543z"/> </g> <g> <polygon style="fill:#a87a29;" points="79.912,16.44 84.168,16.121 83.91,13.384 83.415,13.422 83.633,15.717 79.87,16.002 "/> </g> <g> <polygon style="fill:#a87a29;" points="79.834,13.605 80.23,10.727 79.742,10.674 79.399,13.144 76.633,12.993 76.6,13.434 "/> </g> </g> <g> <g> <path style="fill:#a87a29;" d="M104.09,39.358l-0.251-0.379c-0.073,0.036-7.173,3.666-14.85,3.789l0.008,0.438 C96.811,43.082,104.018,39.399,104.09,39.358z"/> </g> <g> <polygon style="fill:#a87a29;" points="98.883,43.673 101.153,40.46 98.527,39.005 98.261,39.377 100.469,40.598 98.463,43.443 "/> </g> <g> <polygon style="fill:#a87a29;" points="96.286,42.028 93.918,40.021 93.579,40.337 95.601,42.06 93.808,43.933 94.191,44.22 "/> </g> </g> <g> <g> <path style="fill:#a87a29;" d="M115.914,53.794l-0.221-0.393c-0.074,0.029-7.436,3.229-15.105,2.893l-0.022,0.441 C108.368,57.075,115.837,53.826,115.914,53.794z"/> </g> <g> <polygon style="fill:#a87a29;" points="110.395,57.79 112.9,54.716 110.388,53.109 110.097,53.464 112.205,54.815 109.988,57.53 "/> </g> <g> <polygon style="fill:#a87a29;" points="107.924,55.991 105.716,53.85 105.353,54.145 107.243,55.985 105.309,57.744 105.663,58.056 "/> </g> </g> <g> <g> <path style="fill:#a87a29;" d="M120.185,69.18l-0.154-0.42c-0.078,0.02-7.892,2.205-15.422,0.859l-0.098,0.432 C112.171,71.421,120.105,69.204,120.185,69.18z"/> </g> <g> <polygon style="fill:#a87a29;" points="114.051,72.397 117.047,69.693 114.838,67.769 114.493,68.083 116.348,69.698 113.698,72.088 "/> </g> <g> <polygon style="fill:#a87a29;" points="111.912,70.29 110.092,67.881 109.679,68.126 111.241,70.192 109.035,71.679 109.332,72.033 "/> </g> </g> <g> <g> <path style="fill:#a87a29;" d="M125.569,85.477l-0.066-0.434c-0.082,0.003-8.212,0.927-15.35-1.584l-0.183,0.411 C117.232,86.419,125.484,85.485,125.569,85.477z"/> </g> <g> <polygon style="fill:#a87a29;" points="118.89,87.678 122.377,85.485 120.586,83.245 120.184,83.499 121.687,85.383 118.601,87.319 "/> </g> <g> <polygon style="fill:#a87a29;" points="117.204,85.267 115.897,82.61 115.442,82.786 116.561,85.065 114.09,86.183 114.316,86.575 "/> </g> </g> <g> <g> <path style="fill:#a87a29;" d="M128.924,100.255l0.009-0.438c-0.078-0.001-8.277-0.151-14.919-3.563l-0.248,0.381 C120.528,100.105,128.843,100.258,128.924,100.255z"/> </g> <g> <polygon style="fill:#a87a29;" points="121.956,101.565 125.771,99.854 124.371,97.404 123.929,97.602 125.106,99.66 121.733,101.171 "/> </g> <g> <polygon style="fill:#a87a29;" points="120.686,98.963 119.838,96.164 119.356,96.279 120.087,98.679 117.46,99.462 117.617,99.877 "/> </g> </g> <g> <g> <path style="fill:#a87a29;" d="M127.891,114.339l0.008-0.439c-0.081-0.003-8.278-0.153-14.923-3.571l-0.246,0.384 C119.488,114.186,127.805,114.335,127.891,114.339z"/> </g> <g> <polygon style="fill:#a87a29;" points="120.918,115.644 124.732,113.935 123.334,111.486 122.893,111.683 124.07,113.739 120.696,115.257 "/> </g> <g> <polygon style="fill:#a87a29;" points="119.652,113.042 118.801,110.241 118.323,110.355 119.049,112.759 116.424,113.54 116.58,113.958 "/> </g> </g> </g> </g> <g> <g> <path style="fill:#97761c;" d="M119.617,117.363c-0.002-0.228,0.063-22.85-8.167-36.928l2.902-1.334 c8.599,14.724,8.53,37.327,8.523,38.281L119.617,117.363z"/> </g> <path style="fill:#e68c41;" d="M111.376,69.383c0,0-0.843-19.651,9.152-20.214c10.015-0.547-4.747,21.784-4.747,21.784 L111.376,69.383z"/> <path style="fill:#e68c41;" d="M116.354,69.69c0,0,20.197-8.151,24.569-0.149c4.376,7.996-24.532,4.358-24.532,4.358 L116.354,69.69z"/> <path style="fill:#e68c41;" d="M117.468,76.245c0,0,21.423,5.115,19.044,13.753c-2.374,8.634-22.049-10.501-22.049-10.501 L117.468,76.245z"/> <path style="fill:#e68c41;" d="M112.881,81.122c0,0-5.866,18.976-15.604,16.833c-9.735-2.142,11.938-19.506,11.938-19.506 L112.881,81.122z"/> <path style="fill:#e68c41;" d="M107.557,73.502c0,0-20.687-7.151-17.261-15.505c3.416-8.362,20.632,12.552,20.632,12.552 L107.557,73.502z"/> <path style="fill:#e68c41;" d="M106.487,78.523c0,0-18.815,10.437-24.339,3.021c-5.525-7.414,23.671-7.183,23.671-7.183 L106.487,78.523z"/> <path style="fill:#ed0707;" d="M120.621,77.542c-1.751,3.87-6.712,5.749-11.071,4.199c-4.372-1.557-6.48-5.951-4.729-9.82 c1.75-3.866,6.704-5.754,11.075-4.198C120.256,69.274,122.371,73.677,120.621,77.542z"/> </g> <g> <g> <path style="fill:#f4e390;" d="M147.371,167.724c-8.191-15.03-12.055-33.503-12.953-50.771 c-2.069-39.879,17.032-75.594,46.2-101.441c0.532-0.473,1.552,0.583,0.941,1.125c-29.399,26.05-47.82,61.613-45.742,101.635 c0.862,16.643,4.835,34.641,12.725,49.12C149.016,168.261,147.738,168.397,147.371,167.724L147.371,167.724z"/> </g> <g> <path style="fill:#f4e390;" d="M142.707,157.673c0,0-16.175-17.75-19.012-9.043c-2.84,8.708,20.816,13.331,20.816,13.331 L142.707,157.673z"/> <g> <g> <path style="fill:#d97d26;" d="M143.082,159.719c-6.207-1.692-12.527-5.266-16.096-10.873 c-0.264-0.415,0.348-0.304,0.505-0.058c3.435,5.394,9.531,8.785,15.51,10.409 C143.279,159.279,143.548,159.844,143.082,159.719L143.082,159.719z"/> </g> <g> <path style="fill:#d97d26;" d="M137.434,154.279c0.302,0.495,2.301,3.546,1.494,3.954c-0.715,0.361-1.986,0.034-2.719-0.047 c-0.763-0.079-1.523-0.181-2.281-0.301c-0.183-0.026-0.653-0.547-0.418-0.508c1.493,0.235,3.107,0.563,4.633,0.414 c0.824-0.081-0.017-1.421-0.208-1.811c-0.314-0.638-0.663-1.258-1.031-1.865C136.708,153.791,137.345,154.128,137.434,154.279 L137.434,154.279z"/> </g> <g> <path style="fill:#d97d26;" d="M132.041,149.694c0.252,1.138,1.022,4.301-0.752,4.484c-1.056,0.107-2.241-0.4-3.211-0.73 c-0.786-0.27-1.566-0.564-2.33-0.89c-0.381-0.165-0.281-0.742,0.164-0.555c1.357,0.579,2.759,1.102,4.2,1.426 c1.145,0.253,1.572-0.015,1.588-1.292c0.011-0.824-0.129-1.659-0.304-2.451C131.293,149.224,131.964,149.348,132.041,149.694 L132.041,149.694z"/> </g> </g> </g> <g> <path style="fill:#f4e390;" d="M143.711,157.163c0,0,9.418-24.258,15.146-17.558c5.735,6.702-14.266,21.548-14.266,21.548 L143.711,157.163z"/> <g> <g> <path style="fill:#d97d26;" d="M145.095,158.456c5.077-4.335,9.576-10.442,10.829-17.175c0.091-0.498-0.429-0.121-0.485,0.175 c-1.203,6.482-5.566,12.317-10.453,16.49C144.756,158.138,144.714,158.78,145.095,158.456L145.095,158.456z"/> </g> <g> <path style="fill:#d97d26;" d="M148.308,150.942c-0.094,0.591-0.825,4.28,0.058,4.29c0.784,0.01,1.831-0.86,2.473-1.261 c0.672-0.413,1.332-0.851,1.982-1.297c0.157-0.11,0.4-0.793,0.199-0.654c-1.283,0.884-2.646,1.907-4.093,2.456 c-0.786,0.299-0.5-1.308-0.463-1.752c0.06-0.725,0.157-1.449,0.273-2.169C148.8,150.168,148.338,150.761,148.308,150.942 L148.308,150.942z"/> </g> <g> <path style="fill:#d97d26;" d="M151.599,144.324c0.179,1.155,0.612,4.395,2.301,3.77c1.004-0.376,1.91-1.373,2.679-2.107 c0.626-0.602,1.229-1.223,1.813-1.864c0.293-0.318-0.009-0.804-0.348-0.432c-1.036,1.139-2.133,2.247-3.337,3.19 c-0.956,0.75-1.442,0.692-1.919-0.475c-0.304-0.746-0.477-1.575-0.601-2.376C152.115,143.558,151.545,143.973,151.599,144.324 L151.599,144.324z"/> </g> </g> </g> <g> <path style="fill:#f4e390;" d="M138.704,144.51c0,0-16.176-17.751-19.013-9.045c-2.837,8.709,20.818,13.334,20.818,13.334 L138.704,144.51z"/> <g> <g> <path style="fill:#d97d26;" d="M139.078,146.554c-6.209-1.69-12.526-5.265-16.093-10.874 c-0.267-0.414,0.346-0.301,0.502-0.055c3.437,5.399,9.531,8.784,15.511,10.413 C139.276,146.115,139.543,146.683,139.078,146.554L139.078,146.554z"/> </g> <g> <path style="fill:#d97d26;" d="M133.431,141.114c0.302,0.498,2.296,3.551,1.492,3.956c-0.714,0.361-1.986,0.032-2.718-0.044 c-0.764-0.079-1.525-0.183-2.283-0.301c-0.183-0.03-0.649-0.548-0.416-0.512c1.493,0.236,3.108,0.562,4.632,0.415 c0.825-0.081-0.013-1.421-0.207-1.808c-0.313-0.639-0.664-1.26-1.029-1.87C132.704,140.627,133.339,140.962,133.431,141.114 L133.431,141.114z"/> </g> <g> <path style="fill:#d97d26;" d="M128.037,136.53c0.254,1.139,1.023,4.303-0.751,4.483c-1.056,0.11-2.244-0.398-3.211-0.728 c-0.787-0.266-1.565-0.568-2.331-0.893c-0.383-0.162-0.28-0.739,0.162-0.55c1.359,0.577,2.762,1.099,4.203,1.422 c1.144,0.258,1.568-0.012,1.589-1.293c0.009-0.82-0.131-1.658-0.306-2.447C127.289,136.062,127.96,136.186,128.037,136.53 L128.037,136.53z"/> </g> </g> </g> <g> <path style="fill:#f4e390;" d="M139.351,145.306c0,0,9.42-24.257,15.151-17.555c5.732,6.702-14.269,21.544-14.269,21.544 L139.351,145.306z"/> <g> <g> <path style="fill:#d97d26;" d="M140.739,146.601c5.075-4.332,9.573-10.442,10.824-17.177c0.093-0.497-0.427-0.12-0.482,0.175 c-1.202,6.48-5.566,12.317-10.455,16.49C140.399,146.285,140.356,146.927,140.739,146.601L140.739,146.601z"/> </g> <g> <path style="fill:#d97d26;" d="M143.952,139.085c-0.096,0.59-0.826,4.282,0.056,4.291c0.785,0.009,1.831-0.859,2.475-1.259 c0.669-0.417,1.328-0.851,1.98-1.301c0.156-0.109,0.4-0.793,0.2-0.653c-1.284,0.885-2.645,1.908-4.091,2.457 c-0.789,0.297-0.501-1.308-0.466-1.751c0.06-0.726,0.157-1.451,0.274-2.172C144.442,138.312,143.982,138.904,143.952,139.085 L143.952,139.085z"/> </g> <g> <path style="fill:#d97d26;" d="M147.243,132.468c0.176,1.156,0.61,4.396,2.299,3.769c1.005-0.373,1.911-1.369,2.679-2.106 c0.624-0.598,1.23-1.221,1.815-1.864c0.289-0.318-0.014-0.803-0.348-0.431c-1.04,1.138-2.135,2.245-3.339,3.189 c-0.954,0.747-1.442,0.693-1.917-0.475c-0.306-0.744-0.479-1.573-0.603-2.377 C147.758,131.702,147.187,132.117,147.243,132.468L147.243,132.468z"/> </g> </g> </g> <g> <path style="fill:#f4e390;" d="M136.226,130.576c0,0-13.496-20.053-17.487-11.818c-3.996,8.235,18.678,16.351,18.678,16.351 L136.226,130.576z"/> <g> <g> <path style="fill:#d97d26;" d="M136.314,132.666c-5.883-2.606-11.617-7.099-14.362-13.205 c-0.202-0.452,0.385-0.248,0.506,0.021c2.643,5.875,8.182,10.15,13.849,12.657C136.57,132.256,136.755,132.86,136.314,132.666 L136.314,132.666z"/> </g> <g> <path style="fill:#d97d26;" d="M131.499,126.416c0.227,0.539,1.774,3.87,0.926,4.155c-0.754,0.252-1.964-0.263-2.672-0.448 c-0.74-0.194-1.478-0.409-2.208-0.64c-0.175-0.058-0.566-0.641-0.34-0.569c1.438,0.457,2.984,1.021,4.506,1.102 c0.824,0.043,0.184-1.415,0.046-1.831c-0.221-0.681-0.482-1.351-0.758-2.008C130.85,125.823,131.43,126.253,131.499,126.416 L131.499,126.416z"/> </g> <g> <path style="fill:#d97d26;" d="M126.815,121.057c0.091,1.168,0.414,4.427-1.356,4.346c-1.054-0.05-2.155-0.73-3.064-1.204 c-0.738-0.381-1.464-0.795-2.174-1.233c-0.354-0.218-0.174-0.778,0.238-0.523c1.257,0.776,2.568,1.503,3.945,2.04 c1.092,0.426,1.547,0.223,1.74-1.049c0.122-0.815,0.103-1.667,0.035-2.479C126.142,120.479,126.786,120.702,126.815,121.057 L126.815,121.057z"/> </g> </g> </g> <g> <path style="fill:#f4e390;" d="M136.553,130.966c0,0,7.869-24.803,14.028-18.525c6.159,6.278-12.892,22.437-12.892,22.437 L136.553,130.966z"/> <g> <g> <path style="fill:#d97d26;" d="M138.023,132.159c4.799-4.665,8.907-11.056,9.73-17.849c0.06-0.502-0.439-0.091-0.471,0.209 c-0.792,6.536-4.784,12.648-9.406,17.139C137.662,131.867,137.662,132.508,138.023,132.159L138.023,132.159z"/> </g> <g> <path style="fill:#d97d26;" d="M140.756,124.453c-0.06,0.596-0.556,4.32,0.328,4.27c0.785-0.045,1.777-0.983,2.395-1.424 c0.641-0.461,1.274-0.94,1.898-1.432c0.146-0.119,0.349-0.817,0.156-0.665c-1.225,0.971-2.523,2.084-3.935,2.728 c-0.766,0.351-0.582-1.267-0.574-1.709c0.012-0.727,0.064-1.457,0.134-2.182C141.197,123.651,140.772,124.274,140.756,124.453 L140.756,124.453z"/> </g> <g> <path style="fill:#d97d26;" d="M143.624,117.639c0.25,1.138,0.891,4.336,2.539,3.594c0.981-0.441,1.823-1.496,2.546-2.284 c0.585-0.638,1.151-1.301,1.692-1.979c0.271-0.339-0.062-0.8-0.375-0.406c-0.963,1.205-1.988,2.381-3.132,3.403 c-0.907,0.812-1.398,0.79-1.948-0.338c-0.354-0.722-0.579-1.534-0.753-2.326C144.09,116.841,143.548,117.293,143.624,117.639 L143.624,117.639z"/> </g> </g> </g> <g> <path style="fill:#f4e390;" d="M134.786,112.212c0,0-9.789-22.333-15.101-14.92c-5.312,7.413,15.491,19.625,15.491,19.625 L134.786,112.212z"/> <g> <g> <path style="fill:#d97d26;" d="M134.515,114.297c-5.315-3.663-10.161-9.167-11.804-15.716 c-0.123-0.484,0.419-0.174,0.491,0.114c1.582,6.301,6.275,11.553,11.392,15.08 C134.832,113.94,134.912,114.572,134.515,114.297L134.515,114.297z"/> </g> <g> <path style="fill:#d97d26;" d="M130.868,107.225c0.129,0.576,1.076,4.158,0.196,4.281c-0.779,0.111-1.872-0.621-2.538-0.936 c-0.69-0.328-1.373-0.676-2.048-1.04c-0.163-0.088-0.445-0.738-0.24-0.626c1.334,0.718,2.752,1.562,4.224,1.921 c0.802,0.194,0.42-1.367,0.358-1.802c-0.1-0.717-0.242-1.427-0.403-2.13C130.333,106.519,130.829,107.05,130.868,107.225 L130.868,107.225z"/> </g> <g> <path style="fill:#d97d26;" d="M127.199,101.057c-0.112,1.174-0.349,4.459-2.069,4.052c-1.024-0.244-1.984-1.122-2.793-1.756 c-0.66-0.515-1.298-1.058-1.917-1.622c-0.31-0.281-0.038-0.801,0.32-0.474c1.102,0.999,2.26,1.961,3.514,2.745 c0.994,0.624,1.477,0.507,1.883-0.716c0.259-0.783,0.383-1.63,0.456-2.447C126.637,100.361,127.23,100.701,127.199,101.057 L127.199,101.057z"/> </g> </g> </g> <g> <path style="fill:#f4e390;" d="M134.544,111.136c0,0,14.291-21.651,18.411-13.748c4.122,7.904-18.41,17.867-18.41,17.867 L134.544,111.136z"/> <g> <g> <path style="fill:#d97d26;" d="M135.608,112.723c5.841-3.084,11.499-8.045,14.146-14.37c0.195-0.467-0.387-0.217-0.504,0.062 c-2.546,6.088-8.017,10.811-13.64,13.782C135.348,112.336,135.173,112.955,135.608,112.723L135.608,112.723z"/> </g> <g> <path style="fill:#d97d26;" d="M140.325,106.086c-0.219,0.558-1.716,4.013-0.861,4.227c0.759,0.189,1.957-0.424,2.663-0.666 c0.736-0.254,1.468-0.53,2.195-0.82c0.173-0.072,0.557-0.687,0.331-0.598c-1.429,0.575-2.967,1.266-4.484,1.47 c-0.828,0.109-0.205-1.4-0.074-1.825c0.207-0.701,0.461-1.39,0.725-2.07C140.961,105.44,140.389,105.916,140.325,106.086 L140.325,106.086z"/> </g> <g> <path style="fill:#d97d26;" d="M144.92,100.347c-0.075,1.176-0.346,4.458,1.423,4.231c1.052-0.136,2.145-0.905,3.044-1.453 c0.732-0.442,1.45-0.915,2.152-1.41c0.349-0.247,0.161-0.792-0.244-0.504c-1.245,0.879-2.546,1.713-3.912,2.362 c-1.085,0.514-1.543,0.348-1.758-0.909c-0.133-0.802-0.125-1.655-0.071-2.473C145.583,99.712,144.944,99.99,144.92,100.347 L144.92,100.347z"/> </g> </g> </g> <g> <path style="fill:#f4e390;" d="M136.146,93.827c0,0-4.515-24.237-11.287-18.24c-6.771,5.998,10.624,22.945,10.624,22.945 L136.146,93.827z"/> <g> <g> <path style="fill:#d97d26;" d="M135.422,95.803c-4.323-4.86-7.785-11.417-7.924-18.229c-0.012-0.504,0.443-0.071,0.449,0.228 c0.133,6.557,3.507,12.829,7.669,17.51C135.812,95.532,135.748,96.17,135.422,95.803L135.422,95.803z"/> </g> <g> <path style="fill:#d97d26;" d="M133.464,87.999c-0.001,0.596,0.121,4.335-0.756,4.247c-0.778-0.08-1.674-1.059-2.246-1.526 c-0.594-0.486-1.178-0.992-1.747-1.51c-0.139-0.124-0.27-0.829-0.092-0.67c1.126,1.022,2.309,2.188,3.651,2.894 c0.731,0.382,0.708-1.24,0.745-1.682c0.062-0.726,0.083-1.456,0.085-2.183C133.105,87.178,133.464,87.818,133.464,87.999 L133.464,87.999z"/> </g> <g> <path style="fill:#d97d26;" d="M131.285,81.075c-0.365,1.124-1.323,4.287-2.893,3.477c-0.937-0.484-1.669-1.573-2.312-2.39 c-0.522-0.662-1.02-1.347-1.493-2.047c-0.234-0.348,0.141-0.795,0.416-0.389c0.839,1.243,1.746,2.464,2.784,3.532 c0.825,0.85,1.318,0.85,1.98-0.251c0.421-0.706,0.729-1.507,0.982-2.289C130.898,80.258,131.396,80.733,131.285,81.075 L131.285,81.075z"/> </g> </g> </g> <g> <path style="fill:#f4e390;" d="M136.118,93.315c0,0,18.756-17.625,20.908-8.866c2.148,8.759-21.852,12.897-21.852,12.897 L136.118,93.315z"/> <g> <g> <path style="fill:#d97d26;" d="M136.779,95.133c6.337-1.564,12.934-5.008,16.939-10.538c0.296-0.408-0.326-0.308-0.503-0.065 c-3.854,5.321-10.213,8.583-16.313,10.087C136.617,94.689,136.306,95.251,136.779,95.133L136.779,95.133z"/> </g> <g> <path style="fill:#d97d26;" d="M142.851,89.812c-0.342,0.491-2.576,3.5-1.804,3.923c0.687,0.375,1.982,0.073,2.718,0.01 c0.77-0.064,1.539-0.151,2.306-0.256c0.185-0.026,0.692-0.533,0.457-0.501c-1.511,0.206-3.149,0.499-4.659,0.322 c-0.82-0.099,0.123-1.421,0.347-1.805c0.364-0.633,0.766-1.247,1.177-1.845C143.616,89.34,142.954,89.664,142.851,89.812 L142.851,89.812z"/> </g> <g> <path style="fill:#d97d26;" d="M148.6,85.342c-0.344,1.133-1.36,4.277,0.398,4.495c1.044,0.13,2.272-0.353,3.265-0.664 c0.809-0.25,1.609-0.533,2.399-0.843c0.396-0.155,0.34-0.735-0.118-0.554c-1.402,0.548-2.846,1.04-4.311,1.335 c-1.164,0.234-1.569-0.043-1.483-1.323c0.052-0.82,0.258-1.653,0.496-2.44C149.384,84.887,148.705,84.998,148.6,85.342 L148.6,85.342z"/> </g> </g> </g> <g> <path style="fill:#f4e390;" d="M139.917,78.187c0,0-1.083-24.771-8.589-19.825c-7.499,4.945,7.284,24.402,7.284,24.402 L139.917,78.187z"/> <g> <g> <path style="fill:#d97d26;" d="M138.93,80.045c-3.584-5.482-6.082-12.519-5.277-19.312c0.061-0.502,0.447-0.003,0.412,0.294 c-0.778,6.539,1.674,13.279,5.125,18.557C139.351,79.83,139.2,80.455,138.93,80.045L138.93,80.045z"/> </g> <g> <path style="fill:#d97d26;" d="M138.085,71.99c-0.083,0.594-0.482,4.328-1.336,4.107c-0.753-0.195-1.501-1.302-1.999-1.852 c-0.518-0.573-1.022-1.164-1.516-1.764c-0.117-0.145-0.145-0.865,0.005-0.68c0.97,1.185,1.971,2.522,3.196,3.424 c0.668,0.49,0.87-1.125,0.968-1.559c0.16-0.712,0.285-1.437,0.386-2.157C137.843,71.122,138.11,71.811,138.085,71.99 L138.085,71.99z"/> </g> <g> <path style="fill:#d97d26;" d="M136.899,64.781c-0.515,1.063-1.9,4.064-3.336,3.021c-0.852-0.621-1.425-1.813-1.943-2.722 c-0.422-0.736-0.818-1.491-1.187-2.259c-0.184-0.383,0.25-0.77,0.46-0.326c0.658,1.362,1.382,2.713,2.259,3.931 c0.692,0.967,1.179,1.041,1.981,0.045c0.517-0.638,0.93-1.389,1.288-2.127C136.63,63.911,137.053,64.458,136.899,64.781 L136.899,64.781z"/> </g> </g> </g> <g> <path style="fill:#f4e390;" d="M140.574,77.619c0,0,19.135-17.176,21.087-8.362c1.947,8.815-22.122,12.373-22.122,12.373 L140.574,77.619z"/> <g> <g> <path style="fill:#d97d26;" d="M141.194,79.455c6.364-1.41,13.03-4.696,17.158-10.129c0.306-0.403-0.319-0.318-0.498-0.079 c-3.973,5.23-10.399,8.337-16.529,9.696C141.041,79.005,140.717,79.56,141.194,79.455L141.194,79.455z"/> </g> <g> <path style="fill:#d97d26;" d="M147.377,74.279c-0.35,0.483-2.653,3.438-1.889,3.879c0.68,0.392,1.979,0.123,2.716,0.077 c0.771-0.045,1.541-0.114,2.307-0.2c0.185-0.021,0.707-0.517,0.469-0.491c-1.512,0.171-3.158,0.424-4.661,0.208 c-0.818-0.118,0.157-1.417,0.387-1.796c0.377-0.624,0.793-1.229,1.218-1.817C148.152,73.824,147.485,74.133,147.377,74.279 L147.377,74.279z"/> </g> <g> <path style="fill:#d97d26;" d="M153.223,69.946c-0.367,1.124-1.455,4.246,0.296,4.506c1.041,0.156,2.279-0.296,3.278-0.583 c0.813-0.232,1.619-0.496,2.415-0.786c0.398-0.145,0.353-0.726-0.11-0.558c-1.409,0.515-2.862,0.973-4.332,1.232 c-1.169,0.205-1.566-0.082-1.455-1.36c0.073-0.82,0.298-1.647,0.555-2.429C154.017,69.511,153.335,69.606,153.223,69.946 L153.223,69.946z"/> </g> </g> </g> <g> <path style="fill:#f4e390;" d="M144.925,64.003c0,0,1.61-24.826-6.352-20.773c-7.966,4.053,4.561,25.186,4.561,25.186 L144.925,64.003z"/> <g> <g> <path style="fill:#d97d26;" d="M143.747,65.74c-2.955-5.885-4.669-13.195-3.135-19.875c0.113-0.494,0.446,0.049,0.377,0.342 c-1.479,6.428,0.219,13.438,3.065,19.104C144.188,65.577,143.967,66.182,143.747,65.74L143.747,65.74z"/> </g> <g> <path style="fill:#d97d26;" d="M143.782,57.61c-0.146,0.582-0.946,4.259-1.767,3.94c-0.727-0.284-1.345-1.475-1.778-2.081 c-0.452-0.633-0.887-1.281-1.311-1.938c-0.102-0.158-0.052-0.88,0.079-0.677c0.83,1.295,1.678,2.745,2.795,3.789 c0.607,0.566,0.98-1.021,1.126-1.441c0.237-0.692,0.436-1.399,0.614-2.107C143.64,56.716,143.827,57.435,143.782,57.61 L143.782,57.61z"/> </g> <g> <path style="fill:#d97d26;" d="M143.387,50.281c-0.627,1.002-2.32,3.83-3.627,2.624c-0.778-0.719-1.216-1.976-1.63-2.94 c-0.337-0.785-0.648-1.585-0.93-2.393c-0.143-0.403,0.328-0.739,0.49-0.271c0.505,1.436,1.073,2.865,1.808,4.183 c0.584,1.046,1.053,1.177,1.959,0.277c0.579-0.574,1.07-1.274,1.505-1.969C143.217,49.383,143.579,49.979,143.387,50.281 L143.387,50.281z"/> </g> </g> </g> <g> <path style="fill:#f4e390;" d="M145.636,63.515c0,0,20.808-14.887,21.782-5.867c0.976,9.019-23.242,9.745-23.242,9.745 L145.636,63.515z"/> <g> <g> <path style="fill:#d97d26;" d="M146.051,65.419c6.457-0.661,13.411-3.156,18.088-8.091c0.346-0.366-0.283-0.353-0.484-0.136 c-4.503,4.749-11.202,7.096-17.416,7.731C145.948,64.953,145.567,65.468,146.051,65.419L146.051,65.419z"/> </g> <g> <path style="fill:#d97d26;" d="M152.737,60.981c-0.401,0.441-2.999,3.119-2.294,3.648c0.631,0.471,1.946,0.354,2.683,0.396 c0.767,0.043,1.535,0.065,2.308,0.07c0.184,0,0.753-0.431,0.516-0.434c-1.517-0.009-3.174,0.053-4.64-0.339 c-0.797-0.212,0.31-1.395,0.579-1.746c0.442-0.578,0.918-1.131,1.401-1.668C153.55,60.62,152.856,60.848,152.737,60.981 L152.737,60.981z"/> </g> <g> <path style="fill:#d97d26;" d="M158.992,57.345c-0.484,1.078-1.901,4.064-0.195,4.529c1.014,0.277,2.289-0.029,3.309-0.199 c0.83-0.134,1.657-0.302,2.478-0.5c0.41-0.097,0.43-0.682-0.049-0.568c-1.453,0.349-2.938,0.635-4.427,0.722 c-1.177,0.067-1.54-0.266-1.288-1.528c0.16-0.809,0.471-1.607,0.81-2.356C159.825,57.005,159.141,57.019,158.992,57.345 L158.992,57.345z"/> </g> </g> </g> <g> <path style="fill:#f4e390;" d="M153.48,47.605c0,0,4.86-24.469-3.529-21.573c-8.391,2.898,1.186,25.708,1.186,25.708 L153.48,47.605z"/> <g> <g> <path style="fill:#d97d26;" d="M152.087,49.164c-2.139-6.275-2.866-13.793-0.469-20.218c0.177-0.476,0.431,0.112,0.323,0.395 c-2.303,6.184-1.553,13.398,0.505,19.441C152.544,49.064,152.246,49.635,152.087,49.164L152.087,49.164z"/> </g> <g> <path style="fill:#d97d26;" d="M153.196,41.081c-0.222,0.559-1.496,4.104-2.262,3.668c-0.681-0.385-1.134-1.659-1.483-2.323 c-0.362-0.694-0.706-1.401-1.033-2.114c-0.081-0.172,0.064-0.883,0.168-0.663c0.645,1.406,1.292,2.971,2.255,4.169 c0.522,0.648,1.102-0.877,1.301-1.277c0.323-0.652,0.614-1.329,0.885-2.006C153.17,40.17,153.261,40.913,153.196,41.081 L153.196,41.081z"/> </g> <g> <path style="fill:#d97d26;" d="M153.771,33.735c-0.75,0.906-2.791,3.48-3.925,2.092c-0.672-0.827-0.935-2.139-1.218-3.159 c-0.232-0.828-0.432-1.668-0.604-2.512c-0.085-0.421,0.423-0.688,0.522-0.198c0.306,1.499,0.681,3.003,1.23,4.418 c0.438,1.124,0.885,1.319,1.897,0.556c0.646-0.489,1.225-1.116,1.742-1.746C153.722,32.817,153.997,33.46,153.771,33.735 L153.771,33.735z"/> </g> </g> </g> <g> <path style="fill:#f4e390;" d="M154.246,47.22c0,0,22.482-11.845,22.259-2.733c-0.225,9.11-24.21,6.382-24.21,6.382 L154.246,47.22z"/> <g> <g> <path style="fill:#d97d26;" d="M154.405,49.172c6.452,0.262,13.643-1.228,18.904-5.472c0.388-0.314-0.229-0.393-0.46-0.205 c-5.063,4.084-11.98,5.463-18.194,5.211C154.364,48.694,153.92,49.153,154.405,49.172L154.405,49.172z"/> </g> <g> <path style="fill:#d97d26;" d="M161.581,45.711c-0.451,0.382-3.367,2.676-2.742,3.303c0.559,0.556,1.874,0.628,2.593,0.774 c0.753,0.155,1.509,0.286,2.268,0.4c0.181,0.027,0.8-0.323,0.566-0.358c-1.495-0.225-3.138-0.401-4.529-0.998 c-0.759-0.326,0.488-1.345,0.799-1.655c0.512-0.513,1.053-0.995,1.602-1.462C162.434,45.466,161.717,45.595,161.581,45.711 L161.581,45.711z"/> </g> <g> <path style="fill:#d97d26;" d="M168.234,42.985c-0.624,1.004-2.412,3.772-0.795,4.477c0.969,0.421,2.266,0.297,3.292,0.275 c0.837-0.017,1.677-0.066,2.509-0.146c0.419-0.038,0.515-0.617,0.03-0.571c-1.481,0.14-2.986,0.211-4.463,0.086 c-1.169-0.101-1.483-0.483-1.07-1.704c0.265-0.782,0.677-1.532,1.108-2.229C169.097,42.765,168.42,42.682,168.234,42.985 L168.234,42.985z"/> </g> </g> </g> <g> <path style="fill:#f4e390;" d="M164.791,33.103c0,0,8.016-23.465-2.463-20.38c-10.48,3.086-0.753,24.405-0.753,24.405 L164.791,33.103z"/> <g> <g> <path style="fill:#d97d26;" d="M162.962,34.641c-2.074-5.886-2.317-13.007,1.149-19.213c0.259-0.458,0.517,0.089,0.363,0.361 c-3.338,5.974-3.038,12.806-1.044,18.474C163.523,34.529,163.115,35.083,162.962,34.641L162.962,34.641z"/> </g> <g> <path style="fill:#d97d26;" d="M165,26.91c-0.319,0.54-2.174,3.959-3.07,3.577c-0.797-0.339-1.24-1.533-1.609-2.152 c-0.382-0.646-0.742-1.305-1.081-1.97c-0.082-0.161,0.154-0.841,0.259-0.637c0.67,1.311,1.323,2.774,2.396,3.876 c0.582,0.597,1.42-0.877,1.695-1.264c0.449-0.635,0.864-1.288,1.251-1.943C165.047,26.044,165.096,26.747,165,26.91L165,26.91 z"/> </g> <g> <path style="fill:#d97d26;" d="M166.329,19.898c-0.989,0.892-3.703,3.42-4.962,2.144c-0.751-0.758-0.962-1.996-1.218-2.955 c-0.211-0.78-0.384-1.571-0.521-2.367c-0.069-0.396,0.575-0.67,0.655-0.208c0.244,1.414,0.569,2.83,1.123,4.154 c0.436,1.052,0.965,1.221,2.265,0.454c0.829-0.491,1.588-1.108,2.274-1.73C166.346,19.026,166.632,19.629,166.329,19.898 L166.329,19.898z"/> </g> </g> </g> <g> <path style="fill:#f4e390;" d="M164.813,32.107c0,0,21.824-7.939,19.305,2.315c-2.518,10.255-21.87,1.339-21.87,1.339 L164.813,32.107z"/> <g> <g> <path style="fill:#d97d26;" d="M164.445,34.354c5.327,1.865,11.72,1.925,17.203-1.597c0.407-0.261-0.092-0.499-0.332-0.343 c-5.276,3.391-11.412,3.27-16.543,1.474C164.534,33.805,164.045,34.215,164.445,34.354L164.445,34.354z"/> </g> <g> <path style="fill:#d97d26;" d="M171.331,32.181c-0.477,0.322-3.501,2.21-3.137,3.071c0.323,0.765,1.405,1.168,1.97,1.508 c0.587,0.355,1.187,0.687,1.791,1.003c0.146,0.073,0.753-0.171,0.566-0.269c-1.193-0.618-2.519-1.217-3.535-2.23 c-0.547-0.554,0.754-1.402,1.093-1.677c0.56-0.457,1.137-0.871,1.713-1.266C172.105,32.112,171.474,32.085,171.331,32.181 L171.331,32.181z"/> </g> <g> <path style="fill:#d97d26;" d="M177.586,30.714c-0.774,0.985-2.977,3.683-1.806,4.874c0.7,0.71,1.814,0.885,2.682,1.109 c0.703,0.185,1.417,0.334,2.135,0.447c0.357,0.056,0.586-0.575,0.17-0.641c-1.272-0.202-2.552-0.485-3.75-0.986 c-0.953-0.398-1.118-0.908-0.462-2.188c0.42-0.82,0.957-1.568,1.497-2.253C178.367,30.674,177.824,30.416,177.586,30.714 L177.586,30.714z"/> </g> </g> </g> <g> <path style="fill:#f4e390;" d="M174.02,21.982c0,0,6.664-20.942-0.927-19.3c-7.59,1.642-1.525,22.675-1.525,22.675 L174.02,21.982z"/> <g> <g> <path style="fill:#d97d26;" d="M172.655,23.201c-1.238-5.733-1.124-12.405,1.6-17.786c0.2-0.397,0.363,0.145,0.245,0.381 c-2.62,5.178-2.687,11.586-1.494,17.107C173.063,23.162,172.746,23.631,172.655,23.201L172.655,23.201z"/> </g> <g> <path style="fill:#d97d26;" d="M174.42,16.23c-0.249,0.466-1.708,3.438-2.332,2.975c-0.554-0.411-0.823-1.577-1.058-2.197 c-0.246-0.647-0.477-1.304-0.692-1.965c-0.052-0.16,0.146-0.769,0.21-0.565c0.425,1.303,0.831,2.745,1.551,3.9 c0.391,0.625,1.049-0.651,1.262-0.979c0.347-0.539,0.667-1.1,0.967-1.666C174.491,15.427,174.496,16.089,174.42,16.23 L174.42,16.23z"/> </g> <g> <path style="fill:#d97d26;" d="M175.653,9.847c-0.741,0.715-2.777,2.753-3.622,1.414c-0.505-0.795-0.604-1.975-0.748-2.9 c-0.119-0.751-0.21-1.509-0.274-2.268c-0.035-0.38,0.437-0.56,0.476-0.119c0.116,1.348,0.292,2.707,0.63,4.007 c0.268,1.031,0.639,1.252,1.597,0.691c0.609-0.359,1.175-0.848,1.69-1.345C175.703,9.037,175.878,9.63,175.653,9.847 L175.653,9.847z"/> </g> </g> </g> <g> <path style="fill:#f4e390;" d="M174.723,21.726c0,0,20.751-7.978,19.651-0.01c-1.107,7.966-21.709,3.001-21.709,3.001 L174.723,21.726z"/> <g> <g> <path style="fill:#d97d26;" d="M174.669,23.456c5.59,0.922,11.997,0.386,17.002-2.772c0.368-0.233-0.162-0.367-0.381-0.228 c-4.814,3.039-10.974,3.505-16.359,2.619C174.682,23.034,174.248,23.388,174.669,23.456L174.669,23.456z"/> </g> <g> <path style="fill:#d97d26;" d="M181.261,21.189c-0.432,0.287-3.197,1.986-2.715,2.603c0.43,0.549,1.569,0.753,2.18,0.959 c0.64,0.215,1.283,0.409,1.934,0.593c0.157,0.042,0.728-0.198,0.528-0.255c-1.281-0.355-2.69-0.688-3.845-1.361 c-0.626-0.366,0.56-1.125,0.862-1.365c0.495-0.394,1.015-0.76,1.54-1.109C182.03,21.067,181.393,21.103,181.261,21.189 L181.261,21.189z"/> </g> <g> <path style="fill:#d97d26;" d="M187.323,19.512c-0.642,0.813-2.477,3.049-1.135,3.842c0.797,0.473,1.937,0.504,2.836,0.594 c0.729,0.074,1.464,0.122,2.2,0.142c0.367,0.009,0.509-0.488,0.082-0.5c-1.305-0.037-2.62-0.136-3.894-0.402 c-1.011-0.213-1.246-0.584-0.764-1.609c0.31-0.657,0.743-1.271,1.188-1.837C188.099,19.412,187.514,19.265,187.323,19.512 L187.323,19.512z"/> </g> </g> </g> <g> <path style="fill:#f4e390;" d="M179.482,18.511c0,0,20.217-14.662,13.371-18.125c-6.847-3.461-14.438,17.475-14.438,17.475 L179.482,18.511z"/> <g> <g> <path style="fill:#d97d26;" d="M180.517,16.796c2.393-5.444,6.381-10.797,11.639-13.452c0.388-0.196,0.194,0.349-0.035,0.464 c-5.056,2.555-8.853,7.726-11.157,12.97C180.856,17.022,180.337,17.204,180.517,16.796L180.517,16.796z"/> </g> <g> <path style="fill:#d97d26;" d="M185.962,12.245c-0.463,0.22-3.335,1.713-3.547,0.943c-0.189-0.684,0.284-1.801,0.464-2.455 c0.187-0.683,0.393-1.361,0.612-2.034c0.052-0.162,0.56-0.534,0.492-0.327c-0.431,1.328-0.959,2.757-1.074,4.15 c-0.064,0.755,1.192,0.133,1.547,0c0.584-0.218,1.16-0.472,1.726-0.741C186.486,11.635,186.104,12.177,185.962,12.245 L185.962,12.245z"/> </g> <g> <path style="fill:#d97d26;" d="M190.649,7.832c-0.992,0.113-3.762,0.485-3.636-1.14c0.075-0.966,0.686-1.989,1.116-2.831 c0.347-0.686,0.72-1.36,1.114-2.019c0.193-0.329,0.664-0.178,0.436,0.204c-0.698,1.17-1.358,2.386-1.854,3.658 c-0.396,1.009-0.237,1.423,0.832,1.57c0.688,0.094,1.41,0.054,2.098-0.024C191.161,7.204,190.951,7.798,190.649,7.832 L190.649,7.832z"/> </g> </g> </g> </g> <g> <g> <path style="fill:#97761c;" d="M139.242,123.4c0.081-0.175,7.916-17.604,19.157-26.188l-1.77-1.822 c-11.751,8.979-19.584,26.395-19.91,27.131L139.242,123.4z"/> </g> <path style="fill:#e68c41;" d="M162.296,88.724c0,0,7.507-14.895,0-18.064c-7.509-3.167-3.928,18.064-3.928,18.064H162.296z"/> <path style="fill:#e68c41;" d="M158.369,87.597c0,0-12.707-11.806-18.86-6.846c-6.157,4.957,17.365,10.074,17.365,10.074 L158.369,87.597z"/> <path style="fill:#e68c41;" d="M155.225,92.337c0,0-18.273-1.93-19.452,5.371c-1.179,7.297,20.623-2.044,20.623-2.044 L155.225,92.337z"/> <path style="fill:#e68c41;" d="M157.056,97.348c0,0-2.096,16.213,6.145,17.231c8.23,1.02-2.391-18.282-2.391-18.282 L157.056,97.348z"/> <path style="fill:#e68c41;" d="M163.812,92.942c0,0,18.401,0.162,18.686-7.207c0.275-7.375-20.254,4.007-20.254,4.007 L163.812,92.942z"/> <path style="fill:#e68c41;" d="M162.896,97.098c0,0,10.835,13.189,17.671,8.992c6.837-4.193-15.729-12.013-15.729-12.013 L162.896,97.098z"/> <path style="fill:#ed0707;" d="M152.346,92.472c0,3.459,3.162,6.265,7.06,6.265c3.907,0,7.06-2.806,7.06-6.265 c0-3.454-3.152-6.263-7.06-6.263C155.508,86.209,152.346,89.018,152.346,92.472z"/> </g> </g> <g> <path style="fill:#f2bc5f;" d="M150.702,112.662h-18.724h-0.001h-18.723c0,0-39.32,84.843,3.121,152.711h15.602h0.001h15.602 C190.023,197.504,150.702,112.662,150.702,112.662z"/> </g> </g> </g>
</svg>